<svg id="Layer_1" data-name="Layer 1" xmlns="http://www.w3.org/2000/svg" viewBox="0 0 661 661">
  <defs>
    <style>
      .cls-1 {
        fill: #007aff;
        stroke: #007aff;
      }

      .cls-1, .cls-2 {
        stroke-linecap: round;
        stroke-miterlimit: 10;
      }

      .cls-2 {
        fill: #00ff91;
        stroke: #00ff91;
      }
    </style>
  </defs>
  <title>faviconArtboard 11</title>
  <g>
    <path class="cls-1" d="M255.9,464.56C184.87,394.5,63,279.32,61.06,277.41a48.71,48.71,0,0,1-14.4-34.55,48.2,48.2,0,0,1,14.4-33.59C63,207.35,183,84.49,254,14.43c18.23-18.23,48-18.23,67.19,0,18.23,18.23,18.23,49,0,67.19L161.84,242.86,323.08,397.38c18.23,18.23,18.23,48.95,0,67.19C303.89,482.8,274.14,482.8,255.9,464.56Z"/>
    <path class="cls-2" d="M337.92,196.44c19.2-18.23,48.94-18.23,67.19,0,71,70.07,192.91,185.24,194.82,187.16a48.71,48.71,0,0,1,14.4,34.55,48.2,48.2,0,0,1-14.4,33.59C598,453.65,478,576.51,407,646.57c-18.23,18.23-48,18.23-67.17,0-18.25-18.23-18.25-49,0-67.19L499.17,418.14,337.92,263.62C319.68,245.39,319.68,214.68,337.92,196.44Z"/>
  </g>
</svg>
