<svg id="Layer_1" data-name="Layer 1" xmlns="http://www.w3.org/2000/svg" viewBox="0 0 500 325.08">
  <defs>
    <style>
      .cls-1 {
        fill: #fff;
      }

      .cls-2, .cls-4 {
        fill: #007aff;
        stroke: #007aff;
      }

      .cls-2, .cls-3, .cls-4 {
        stroke-linecap: round;
        stroke-miterlimit: 10;
      }

      .cls-2 {
        stroke-width: 1.5px;
      }

      .cls-3 {
        fill: #00ff91;
        stroke: #00ff91;
      }
    </style>
  </defs>
  <title>logoArtboard 9</title>
  <g>
    <path class="cls-1" d="M63.83,297.57c0,5.32-3.85,27.51-30.63,27.51-12.84,0-27.88-5.69-32.83-18.52A5.84,5.84,0,0,1,0,304a9.45,9.45,0,0,1,9.35-9,9,9,0,0,1,7,3.48c4.22,5.87,8.62,8.25,16.51,8.62,11.74,0,12.66-8.07,12.84-9.54,0-6.24-6.42-8.8-15.22-9.72C19.26,286.57,0,280.51,0,260.34c0-17.61,14.86-28.06,31-28.06A39.5,39.5,0,0,1,48.6,236.5c1.83.92,15.22,7,15.22,18.16a9.7,9.7,0,0,1-9.35,8.8c-4.4,0-6.24-2.93-8.44-6.24-2.57-5.14-10.27-6.79-15.41-6.79-6.79,0-12.66,3.85-12.66,10.09,0,13.2,19.81,4.58,35,16.32C59.61,282.17,63.83,290.05,63.83,297.57Z"/>
    <path class="cls-2" d="M78.32,212.1a9.08,9.08,0,1,1,12.84-12.84A9.08,9.08,0,0,1,78.32,212.1Z"/>
    <path class="cls-1" d="M75.57,315.91V242a9.08,9.08,0,0,1,18.16,0v73.91a9.08,9.08,0,1,1-18.16,0Z"/>
    <path class="cls-1" d="M178.28,241.81V196.15a9.08,9.08,0,0,1,18.16,0V278.5a45.94,45.94,0,1,1-18.16-36.68Zm0,36.68v-.18a28,28,0,1,0,0,.18Z"/>
    <path class="cls-1" d="M299.15,278.86a9,9,0,0,1-9.17,9H226.71a28,28,0,0,0,26.41,18.89,36,36,0,0,0,20.54-6.05c4.22-2.75,9.9-.18,12.1,4.22,2.2,4.59-.18,9.35-4.4,12.1-12.1,8.07-21.46,7.89-28.24,7.89a46,46,0,0,1,0-92.07C275.31,232.83,299.15,249,299.15,278.86Zm-72.45-9.17h53C275.86,256.85,264.12,251,253.12,251A28,28,0,0,0,226.71,269.69Z"/>
    <path class="cls-1" d="M381.69,322.33a8.76,8.76,0,0,1-12.66-1.1l-34.85-41.82-5.69,3.85v32.1a9.2,9.2,0,0,1-9.17,9.17,9,9,0,0,1-9-9.17V196.51a9,9,0,0,1,9-9,9.16,9.16,0,0,1,9.17,9v65.29l41.63-27.33a9.05,9.05,0,1,1,11.56,13.94l-32.1,21.09L383,309.68A9,9,0,0,1,381.69,322.33Z"/>
    <path class="cls-3" d="M398.75,212.1a9.08,9.08,0,1,1,12.84-12.84,9.08,9.08,0,0,1-12.84,12.84Z"/>
    <path class="cls-1" d="M396,315.91V242a9.08,9.08,0,0,1,18.16,0v73.91a9.08,9.08,0,1,1-18.16,0Z"/>
    <path class="cls-1" d="M496.7,322.33a8.76,8.76,0,0,1-12.66-1.1l-34.85-41.82-5.68,3.85v32.1a9.2,9.2,0,0,1-9.17,9.17,9,9,0,0,1-9-9.17V196.51a9,9,0,0,1,9-9,9.16,9.16,0,0,1,9.17,9v65.29l41.63-27.33a9.05,9.05,0,1,1,11.55,13.94l-32.1,21.09L498,309.68A9,9,0,0,1,496.7,322.33Z"/>
  </g>
  <g>
    <path class="cls-4" d="M231.15,117.68c-17.94-17.7-48.74-46.8-49.22-47.28a12.31,12.31,0,0,1-3.64-8.73,12.18,12.18,0,0,1,3.64-8.49c.49-.48,30.8-31.52,48.74-49.22a12.15,12.15,0,0,1,17,0,12.15,12.15,0,0,1,0,17L207.39,61.67l40.74,39a12,12,0,1,1-17,17Z"/>
    <path class="cls-3" d="M251.88,49.94a12.15,12.15,0,0,1,17,0c17.94,17.7,48.74,46.8,49.22,47.28a12.31,12.31,0,0,1,3.64,8.73,12.18,12.18,0,0,1-3.64,8.49c-.48.48-30.79,31.52-48.74,49.22a12,12,0,0,1-17-17l40.25-40.74-40.74-39A12.14,12.14,0,0,1,251.88,49.94Z"/>
  </g>
</svg>
