<svg data-name="Layer 1" xmlns="http://www.w3.org/2000/svg" viewBox="0 0 607.68 159.64"><path d="M228.4 38.91a8.4 8.4 0 01-2.47-5.77 8.17 8.17 0 0114-5.77 8.17 8.17 0 01-11.53 11.54z" stroke-width="1.5" stroke-linecap="round" stroke-miterlimit="10" fill="#007aff" stroke="#007aff"/><path d="M516.62 38.91a8.4 8.4 0 01-2.47-5.77 8.17 8.17 0 0114-5.77 8.17 8.17 0 01-11.55 11.55z" fill="#00ff91" stroke="#00ff91" stroke-width="1.5" stroke-linecap="round" stroke-miterlimit="10"/><path d="M215.36 115.79c0 4.78-3.46 24.75-27.55 24.75-11.55 0-25.07-5.11-29.53-16.66a5.25 5.25 0 01-.33-2.31 8.5 8.5 0 018.41-8.08 8.06 8.06 0 016.27 3.13c3.79 5.28 7.75 7.42 14.85 7.75 10.56 0 11.38-7.26 11.55-8.58 0-5.61-5.77-7.92-13.69-8.74-10.06-1.16-27.34-6.6-27.34-24.75 0-15.84 13.36-25.24 27.88-25.24a35.53 35.53 0 0115.84 3.79c1.65.82 13.69 6.27 13.69 16.33A8.72 8.72 0 01207 85.1c-4 0-5.61-2.64-7.59-5.61-2.31-4.62-9.24-6.1-13.86-6.1-6.1 0-11.38 3.46-11.38 9.07 0 11.88 17.82 4.12 31.51 14.68 5.89 4.79 9.68 11.86 9.68 18.65zm10.56 16.5V65.8a8.17 8.17 0 0116.33 0v66.48a8.17 8.17 0 11-16.33 0zm92.39-66.65V24.56a8.17 8.17 0 0116.33 0v74.07a41.32 41.32 0 11-16.33-33zm0 33v-.17a25.16 25.16 0 100 .17zM427 99a8.13 8.13 0 01-8.25 8.08h-56.88a25.15 25.15 0 0023.76 17 32.37 32.37 0 0018.48-5.44c3.79-2.47 8.91-.17 10.89 3.79 2 4.12-.16 8.41-4 10.89-10.89 7.26-19.3 7.09-25.4 7.09a41.41 41.41 0 110-82.81C405.58 57.55 427 72.07 427 99zm-65.16-8.25h47.68c-3.47-11.55-14-16.83-23.92-16.83a25.22 25.22 0 00-23.73 16.79zm139.43 47.31a7.87 7.87 0 01-11.38-1l-31.35-37.6-5.11 3.46v28.87a8.27 8.27 0 01-8.25 8.25 8.13 8.13 0 01-8.08-8.25V24.89a8.1 8.1 0 018.08-8.08 8.24 8.24 0 018.25 8.08v58.73L490.88 59a8.14 8.14 0 1110.39 12.54l-28.87 19 30 36.13a8.1 8.1 0 01-1.13 11.39zm12.87-5.77V65.8a8.17 8.17 0 0116.33 0v66.48a8.17 8.17 0 11-16.33 0zm90.57 5.77a7.87 7.87 0 01-11.38-1L562 99.46l-5.11 3.46v28.87a8.27 8.27 0 01-8.25 8.25 8.13 8.13 0 01-8.08-8.25V24.89a8.1 8.1 0 018.08-8.08 8.24 8.24 0 018.25 8.08v58.73L594.32 59a8.14 8.14 0 1110.39 12.54l-28.87 19 30 36.13a8.1 8.1 0 01-1.13 11.39z" fill="#101619"/><g stroke-linecap="round" stroke-miterlimit="10"><path d="M50.83 112.07C33.74 95.21 4.43 67.51 4 67a11.72 11.72 0 01-3.5-8.26A11.59 11.59 0 014 50.66c.46-.46 29.32-30 46.41-46.87a11.57 11.57 0 0116.16 0 11.57 11.57 0 010 16.16L28.2 58.74 67 95.91a11.43 11.43 0 01-16.16 16.16z" fill="#007aff" stroke="#007aff"/><path d="M70.56 47.57a11.57 11.57 0 0116.16 0c17.08 16.85 46.4 44.56 46.86 45a11.72 11.72 0 013.42 8.33 11.59 11.59 0 01-3.46 8.08c-.46.46-29.32 30-46.4 46.87A11.43 11.43 0 0171 139.69l38.32-38.79-38.76-37.17a11.56 11.56 0 010-16.16z" fill="#00ff91" stroke="#00ff91"/></g></svg>