<svg id="Layer_1" data-name="Layer 1" xmlns="http://www.w3.org/2000/svg" viewBox="0 0 500 325.08"><defs><style>.cls-1{fill:#fff}.cls-3{stroke-linecap:round;stroke-miterlimit:10;fill:#00ff91;stroke:#00ff91}</style></defs><path class="cls-1" d="M63.83 297.57c0 5.32-3.85 27.51-30.63 27.51-12.84 0-27.88-5.69-32.83-18.52A5.84 5.84 0 010 304a9.45 9.45 0 019.35-9 9 9 0 017 3.48c4.22 5.87 8.62 8.25 16.51 8.62 11.74 0 12.66-8.07 12.84-9.54 0-6.24-6.42-8.8-15.22-9.72C19.26 286.57 0 280.51 0 260.34c0-17.61 14.86-28.06 31-28.06a39.5 39.5 0 0117.6 4.22c1.83.92 15.22 7 15.22 18.16a9.7 9.7 0 01-9.35 8.8c-4.4 0-6.24-2.93-8.44-6.24-2.57-5.14-10.27-6.79-15.41-6.79-6.79 0-12.66 3.85-12.66 10.09 0 13.2 19.81 4.58 35 16.32 6.65 5.33 10.87 13.21 10.87 20.73z"/><path d="M78.32 212.1a9.08 9.08 0 1112.84-12.84 9.08 9.08 0 01-12.84 12.84z" stroke-width="1.5" stroke-linecap="round" stroke-miterlimit="10" fill="#007aff" stroke="#007aff"/><path class="cls-1" d="M75.57 315.91V242a9.08 9.08 0 0118.16 0v73.91a9.08 9.08 0 11-18.16 0zm102.71-74.1v-45.66a9.08 9.08 0 0118.16 0v82.35a45.94 45.94 0 11-18.16-36.68zm0 36.68v-.18a28 28 0 100 .18zm120.87.37a9 9 0 01-9.17 9h-63.27a28 28 0 0026.41 18.89 36 36 0 0020.54-6.05c4.22-2.75 9.9-.18 12.1 4.22 2.2 4.59-.18 9.35-4.4 12.1-12.1 8.07-21.46 7.89-28.24 7.89a46 46 0 010-92.07c22.19-.01 46.03 16.16 46.03 46.02zm-72.45-9.17h53c-3.84-12.84-15.58-18.69-26.58-18.69a28 28 0 00-26.41 18.69zm154.99 52.64a8.76 8.76 0 01-12.66-1.1l-34.85-41.82-5.69 3.85v32.1a9.2 9.2 0 01-9.17 9.17 9 9 0 01-9-9.17V196.51a9 9 0 019-9 9.16 9.16 0 019.17 9v65.29l41.63-27.33a9.05 9.05 0 1111.56 13.94l-32.1 21.09L383 309.68a9 9 0 01-1.31 12.65z"/><path class="cls-3" d="M398.75 212.1a9.08 9.08 0 1112.84-12.84 9.08 9.08 0 01-12.84 12.84z"/><path class="cls-1" d="M396 315.91V242a9.08 9.08 0 0118.16 0v73.91a9.08 9.08 0 11-18.16 0zm100.7 6.42a8.76 8.76 0 01-12.66-1.1l-34.85-41.82-5.68 3.85v32.1a9.2 9.2 0 01-9.17 9.17 9 9 0 01-9-9.17V196.51a9 9 0 019-9 9.16 9.16 0 019.17 9v65.29l41.63-27.33a9.05 9.05 0 1111.55 13.94l-32.1 21.09L498 309.68a9 9 0 01-1.3 12.65z"/><path d="M231.15 117.68c-17.94-17.7-48.74-46.8-49.22-47.28a12.31 12.31 0 01-3.64-8.73 12.18 12.18 0 013.64-8.49c.49-.48 30.8-31.52 48.74-49.22a12.15 12.15 0 0117 0 12.15 12.15 0 010 17l-40.28 40.71 40.74 39a12 12 0 11-17 17z" stroke-linecap="round" stroke-miterlimit="10" fill="#007aff" stroke="#007aff"/><path class="cls-3" d="M251.88 49.94a12.15 12.15 0 0117 0c17.94 17.7 48.74 46.8 49.22 47.28a12.31 12.31 0 013.64 8.73 12.18 12.18 0 01-3.64 8.49c-.48.48-30.79 31.52-48.74 49.22a12 12 0 01-17-17l40.25-40.74-40.74-39a12.14 12.14 0 01.01-16.98z"/></svg>